<?xml version="1.0" encoding="iso-8859-1"?>
<!-- Generator: Adobe Illustrator 19.1.0, SVG Export Plug-In . SVG Version: 6.00 Build 0)  -->
<svg version="1.1" id="Capa_1" xmlns="http://www.w3.org/2000/svg" xmlns:xlink="http://www.w3.org/1999/xlink" x="0px" y="0px"
	 viewBox="0 0 85 85" style="enable-background:new 0 0 85 85;" xml:space="preserve">
<g>
	<g>
		<path d="M80.927,31h-4.518c-0.603-4-4.464-8-9.134-8H9.725C4.639,23,0,27.519,0,32.605v20.551C0,58.243,4.638,62,9.725,62h57.551
			c5.011,0,9.092-4,9.213-9h4.438C83.619,53,85,51.773,85,49.471V36.227C85,33.985,83.502,31,80.927,31z M72,52.775
			C72,55.661,69.661,58,66.775,58H9.225C6.34,58,4,55.661,4,52.775v-20.55C4,29.34,6.339,27,9.225,27h57.551
			c2.886,0,5.225,2.339,5.225,5.225L72,52.775L72,52.775z M81,49.302C81,49.34,81.195,49,80.927,49H76V35.381l4.393-0.003
			C80.613,35.433,81,35.933,81,36.227V49.302z"/>
		<path d="M22,34.408C22,31.973,20.026,30,17.592,30h-5.184C9.973,30,8,31.974,8,34.408v15.184C8,52.027,9.974,54,12.408,54h5.184
			C20.027,54,22,52.026,22,49.592V34.408z M18,49.592C18,49.818,17.817,50,17.592,50h-5.184C12.182,50,12,49.817,12,49.592V34.408
			C12,34.182,12.183,34,12.408,34h5.184C17.818,34,18,34.183,18,34.408V49.592z"/>
		<path d="M39,34.408C39,31.973,37.026,30,34.592,30h-5.184C26.973,30,25,31.974,25,34.408v15.184C25,52.027,26.974,54,29.408,54
			h5.184C37.027,54,39,52.026,39,49.592C39,49.592,39,34.408,39,34.408z M35,49.592C35,49.818,34.817,50,34.592,50h-5.184
			C29.182,50,29,49.817,29,49.592V34.408C29,34.182,29.183,34,29.408,34h5.184C34.818,34,35,34.183,35,34.408
			C35,34.408,35,49.592,35,49.592z"/>
		<path d="M56,34.408C56,31.973,54.026,30,51.592,30h-5.184C43.973,30,42,31.974,42,34.408v15.184C42,52.027,43.974,54,46.408,54
			h5.184C54.027,54,56,52.026,56,49.592C56,49.592,56,34.408,56,34.408z M52,49.592C52,49.818,51.817,50,51.592,50h-5.184
			C46.182,50,46,49.817,46,49.592V34.408C46,34.182,46.183,34,46.408,34h5.184C51.818,34,52,34.183,52,34.408
			C52,34.408,52,49.592,52,49.592z"/>
	</g>
</g>
<g>
</g>
<g>
</g>
<g>
</g>
<g>
</g>
<g>
</g>
<g>
</g>
<g>
</g>
<g>
</g>
<g>
</g>
<g>
</g>
<g>
</g>
<g>
</g>
<g>
</g>
<g>
</g>
<g>
</g>
</svg>
