<?xml version="1.0" encoding="iso-8859-1"?>
<!-- Generator: Adobe Illustrator 19.1.0, SVG Export Plug-In . SVG Version: 6.00 Build 0)  -->
<svg version="1.1" id="Capa_1" xmlns="http://www.w3.org/2000/svg" xmlns:xlink="http://www.w3.org/1999/xlink" x="0px" y="0px"
	 viewBox="0 0 66.999 66.999" style="enable-background:new 0 0 66.999 66.999;" xml:space="preserve">
<g>
	<g>
		<path d="M8.5,35.047V55.41c-4,0.302-8,3.587-8,7.736v2.234c0,1.104,1.396,1.619,2.5,1.619h62c1.104,0,1.5-0.515,1.5-1.619v-2.234
			c0-4.177-2-7.286-7-7.711V35.047c0-10.752-6.771-19.956-16.295-23.635c0.184-0.302,0.295-0.652,0.295-1.031V9.098
			C43.5,4.128,40.355,0,35.521,0H34.38c-5.084,0-9.88,4.373-9.88,9.098v1.283c0,0.379,0.111,0.729,0.295,1.031
			C15.271,15.091,8.5,24.295,8.5,35.047z M28.5,9.098C28.5,6.585,31.514,4,34.38,4h1.142c2.595,0,3.979,2.364,3.979,5.098v1.199
			c-1-0.39-3.611-0.601-5.5-0.601s-3.5,0.211-5.5,0.601L28.5,9.098L28.5,9.098z M34,13.696c11.855,0,21.5,9.578,21.5,21.351v22.334
			C55.5,58.485,56.896,59,58,59h1.028c2.45,0,3.472,1.824,3.472,4.146V63h-58v0.146C4.5,60.789,7.378,59,9.678,59H11
			c1.104,0,1.5-0.515,1.5-1.619V35.047C12.5,23.274,22.145,13.696,34,13.696z"/>
	</g>
</g>
<g>
</g>
<g>
</g>
<g>
</g>
<g>
</g>
<g>
</g>
<g>
</g>
<g>
</g>
<g>
</g>
<g>
</g>
<g>
</g>
<g>
</g>
<g>
</g>
<g>
</g>
<g>
</g>
<g>
</g>
</svg>
