<?xml version="1.0" encoding="iso-8859-1"?>
<!-- Generator: Adobe Illustrator 19.1.0, SVG Export Plug-In . SVG Version: 6.00 Build 0)  -->
<svg version="1.1" id="Capa_1" xmlns="http://www.w3.org/2000/svg" xmlns:xlink="http://www.w3.org/1999/xlink" x="0px" y="0px"
	 viewBox="0 0 77.015 77.015" style="enable-background:new 0 0 77.015 77.015;" xml:space="preserve">
<g>
	<g>
		<path d="M2.5,20.008H7v44.49c0,4.277,4.457,7.51,9.141,7.51h47.082c4.353,0,6.777-2.79,6.777-7.51v-44.49h5.5
			c1.104,0,1.5-0.515,1.5-1.619v-6.654c0-1.898,0.5-6.727-4.224-6.727H6.28C2.823,5.008,0,7.939,0,11.735v6.654
			C0,19.493,1.396,20.008,2.5,20.008z M66,64.498c0,1.17,0.181,3.51-2.777,3.51H16.141c-2.195,0-5.141-1.217-5.141-3.51v-44.49h55
			V64.498z M4,11.735c0-2.346,1.84-2.727,2.28-2.727h66.496c0.295,0,0.194,0.235,0.209,0.235C73.084,9.364,73,10.015,73,11.734
			v4.274h-4.5h-59H4V11.735z"/>
		<path d="M54,41.008c0-2.209-1.791-4-4-4H28c-2.209,0-4,1.791-4,4v6c0,2.209,1.791,4,4,4h22c2.209,0,4-1.791,4-4V41.008z
			 M28,41.008h22.5l0.003,6H28V41.008z"/>
	</g>
</g>
<g>
</g>
<g>
</g>
<g>
</g>
<g>
</g>
<g>
</g>
<g>
</g>
<g>
</g>
<g>
</g>
<g>
</g>
<g>
</g>
<g>
</g>
<g>
</g>
<g>
</g>
<g>
</g>
<g>
</g>
</svg>
