<?xml version="1.0" encoding="iso-8859-1"?>
<!-- Generator: Adobe Illustrator 19.1.0, SVG Export Plug-In . SVG Version: 6.00 Build 0)  -->
<svg version="1.1" id="Capa_1" xmlns="http://www.w3.org/2000/svg" xmlns:xlink="http://www.w3.org/1999/xlink" x="0px" y="0px"
	 viewBox="0 0 90 90" style="enable-background:new 0 0 90 90;" xml:space="preserve">
<g>
	<g>
		<path d="M90,19.28c0-4.573-3.707-8.28-8.279-8.28H8.279C3.706,11,0,14.707,0,19.28v51.44C0,75.293,3.707,79,8.279,79H81.72
			c4.572,0,8.279-3.707,8.279-8.28L90,19.28L90,19.28z M8.779,15H82.22c2.359,0,3.779,2.301,3.779,4.661V27h-82v-7.339
			C4,17.301,6.419,15,8.779,15z M82.221,75H8.779C6.419,75,4,73.461,4,71.101V31h82v40.101C86,73.461,84.58,75,82.221,75z"/>
		<circle cx="10.448" cy="21.714" r="3.47"/>
		<circle cx="19.817" cy="21.714" r="3.47"/>
		<circle cx="29.187" cy="21.714" r="3.47"/>
	</g>
</g>
<g>
</g>
<g>
</g>
<g>
</g>
<g>
</g>
<g>
</g>
<g>
</g>
<g>
</g>
<g>
</g>
<g>
</g>
<g>
</g>
<g>
</g>
<g>
</g>
<g>
</g>
<g>
</g>
<g>
</g>
</svg>
