<?xml version="1.0" encoding="iso-8859-1"?>
<!-- Generator: Adobe Illustrator 19.1.0, SVG Export Plug-In . SVG Version: 6.00 Build 0)  -->
<svg version="1.1" id="Capa_1" xmlns="http://www.w3.org/2000/svg" xmlns:xlink="http://www.w3.org/1999/xlink" x="0px" y="0px"
	 viewBox="0 0 92 92" style="enable-background:new 0 0 92 92;" xml:space="preserve">
<g>
	<g>
		<path d="M92,20.365C92,15.745,88.255,12,83.635,12H8.365C3.745,12,0,15.745,0,20.365v51.27C0,76.255,3.745,80,8.365,80h75.27
			C88.255,80,92,76.255,92,71.635V20.365z M8.865,16h75.27C86.542,16,88,18.339,88,20.746V28H4v-7.254C4,18.339,6.458,16,8.865,16z
			 M84.135,76H8.865C6.458,76,4,74.423,4,72.016V32h84v40.016C88,74.423,86.542,76,84.135,76z"/>
		<circle cx="11.502" cy="22.978" r="3.517"/>
		<circle cx="20.997" cy="22.978" r="3.517"/>
		<circle cx="30.491" cy="22.978" r="3.517"/>
		<path d="M83,38.5c0-0.829-0.672-1.5-1.5-1.5h-71C9.671,37,9,37.671,9,38.5v8c0,0.828,0.671,1.5,1.5,1.5h71
			c0.828,0,1.5-0.672,1.5-1.5V38.5z M80,45H12v-5h68V45z"/>
		<path d="M35,53.5c0-0.828-0.671-1.5-1.5-1.5h-23C9.671,52,9,52.672,9,53.5v17c0,0.828,0.671,1.5,1.5,1.5h23
			c0.829,0,1.5-0.672,1.5-1.5V53.5z M32,69H12V55h20V69z"/>
		<path d="M83,53.5c0-0.828-0.672-1.5-1.5-1.5h-41c-0.829,0-1.5,0.672-1.5,1.5v17c0,0.828,0.671,1.5,1.5,1.5h41
			c0.828,0,1.5-0.672,1.5-1.5V53.5z M80,69H42V55h38V69z"/>
	</g>
</g>
<g>
</g>
<g>
</g>
<g>
</g>
<g>
</g>
<g>
</g>
<g>
</g>
<g>
</g>
<g>
</g>
<g>
</g>
<g>
</g>
<g>
</g>
<g>
</g>
<g>
</g>
<g>
</g>
<g>
</g>
</svg>
