<?xml version="1.0" encoding="iso-8859-1"?>
<!-- Generator: Adobe Illustrator 19.1.0, SVG Export Plug-In . SVG Version: 6.00 Build 0)  -->
<svg version="1.1" id="Capa_1" xmlns="http://www.w3.org/2000/svg" xmlns:xlink="http://www.w3.org/1999/xlink" x="0px" y="0px"
	 viewBox="0 0 81 81" style="enable-background:new 0 0 81 81;" xml:space="preserve">
<g>
	<g>
		<path d="M73,16c0-0.829-0.672-1.5-1.5-1.5h-62C8.671,14.5,8,15.171,8,16v35c0,0.828,0.671,1.5,1.5,1.5h62
			c0.828,0,1.5-0.672,1.5-1.5V16z M11,17.5h59v32H11V17.5z"/>
		<path d="M6,60.5h26.762c-0.321,3-1.5,8-4.055,10H18c-1.104,0-2,0.896-2,2s0.896,2,2,2h46c1.104,0,2-0.896,2-2s-0.896-2-2-2h-9.729
			c-2.556-2-3.734-7-4.056-10H75c3.309,0,6-2.811,6-6.119v-42C81,9.072,78.309,6.5,75,6.5H6c-3.309,0-6,2.572-6,5.881v42
			C0,57.689,2.691,60.5,6,60.5z M49.045,70.5H33.932c2.102-4,2.709-9,2.853-10h9.407C46.336,61.5,46.943,66.5,49.045,70.5z M77,54.5
			c0,1.104-0.896,2-2,2H6c-1.104,0-2-0.896-2-2v-42c0-1.104,0.896-2,2-2h69c1.104,0,2,0.896,2,2V54.5z"/>
	</g>
</g>
<g>
</g>
<g>
</g>
<g>
</g>
<g>
</g>
<g>
</g>
<g>
</g>
<g>
</g>
<g>
</g>
<g>
</g>
<g>
</g>
<g>
</g>
<g>
</g>
<g>
</g>
<g>
</g>
<g>
</g>
</svg>
