<?xml version="1.0" encoding="iso-8859-1"?>
<!-- Generator: Adobe Illustrator 19.1.0, SVG Export Plug-In . SVG Version: 6.00 Build 0)  -->
<svg version="1.1" id="Capa_1" xmlns="http://www.w3.org/2000/svg" xmlns:xlink="http://www.w3.org/1999/xlink" x="0px" y="0px"
	 viewBox="0 0 80.242 80.242" style="enable-background:new 0 0 80.242 80.242;" xml:space="preserve">
<g>
	<g>
		<path d="M40.424,34.772c-1.104,0-2,0.896-2,2v31.205l-9.805-10.058c-0.781-0.781-1.922-0.781-2.703,0
			c-0.781,0.78-0.719,2.047,0.062,2.828l12.696,12.667C39.049,73.789,39.573,74,40.104,74c0.531,0,1.047-0.211,1.422-0.586
			l12.672-12.667c0.781-0.781,0.783-2.047,0.002-2.828s-2.296-0.781-3.077,0l-8.699,8.449V36.772
			C42.424,35.667,41.528,34.772,40.424,34.772z"/>
		<path d="M80.242,36.062c0-9.756-8.016-17.597-17.867-17.597c-1.184,0-2.301,0.223-3.356,0.471
			C55.495,11.26,47.715,6.242,39.123,6.242c-10.85,0-19.911,7.9-21.597,18.369c-0.823-0.139-1.659-0.202-2.501-0.202
			C6.599,24.409,0,30.669,0,38.899c0,8.231,6.6,14.492,15.025,14.492h15.899c1.104,0,2-0.896,2-2s-0.896-2-2-2H15.026
			c-6.183,0-11.025-4.501-11.025-10.489c0-5.987,4.843-10.583,11.025-10.583c1.116,0,2.219,0.214,3.258,0.537l0.377,0.145
			c0.589,0.191,1.237,0.106,1.748-0.247c0.512-0.354,0.829-0.918,0.86-1.539c0.481-9.507,8.324-16.952,17.854-16.952
			c7.525,0,14.286,4.727,16.821,11.761c0.238,0.66,0.87,1.161,1.56,1.296c0.317,0.063,0.647,0.046,0.958-0.044
			c1.442-0.431,2.66-0.716,3.913-0.716c7.646,0,13.867,5.952,13.867,13.502c0,7.581-6.091,13.329-13.867,13.329H49.924
			c-1.104,0-2,0.896-2,2s0.896,2,2,2h12.451C72.394,53.391,80.242,45.886,80.242,36.062z"/>
	</g>
</g>
<g>
</g>
<g>
</g>
<g>
</g>
<g>
</g>
<g>
</g>
<g>
</g>
<g>
</g>
<g>
</g>
<g>
</g>
<g>
</g>
<g>
</g>
<g>
</g>
<g>
</g>
<g>
</g>
<g>
</g>
</svg>
