<?xml version="1.0" encoding="iso-8859-1"?>
<!-- Generator: Adobe Illustrator 19.1.0, SVG Export Plug-In . SVG Version: 6.00 Build 0)  -->
<svg version="1.1" id="Capa_1" xmlns="http://www.w3.org/2000/svg" xmlns:xlink="http://www.w3.org/1999/xlink" x="0px" y="0px"
	 viewBox="0 0 66.915 66.915" style="enable-background:new 0 0 66.915 66.915;" xml:space="preserve">
<g>
	<g>
		<path d="M32.745,43.348c0.383,0.348,0.863,0.519,1.342,0.519c0.076,0,0.151-0.015,0.228-0.023
			c0.028,0.001,0.057,0.008,0.085,0.008c0.545,0,1.088-0.222,1.482-0.657l15.231-16.804c0.742-0.818,0.68-2.083-0.139-2.824
			c-0.818-0.743-2.083-0.679-2.824,0.139L34.113,39.191L18.626,25.154c-0.819-0.744-2.083-0.68-2.824,0.139
			c-0.742,0.818-0.68,2.083,0.139,2.824L32.745,43.348z"/>
		<path d="M33.457,66.915c18.449,0,33.458-15.009,33.458-33.457C66.915,15.009,51.906,0,33.457,0C15.009,0,0,15.009,0,33.458
			C0,51.906,15.009,66.915,33.457,66.915z M33.457,4C49.7,4,62.915,17.215,62.915,33.458c0,16.242-13.215,29.457-29.458,29.457
			C17.215,62.915,4,49.7,4,33.458C4,17.215,17.215,4,33.457,4z"/>
	</g>
</g>
<g>
</g>
<g>
</g>
<g>
</g>
<g>
</g>
<g>
</g>
<g>
</g>
<g>
</g>
<g>
</g>
<g>
</g>
<g>
</g>
<g>
</g>
<g>
</g>
<g>
</g>
<g>
</g>
<g>
</g>
</svg>
