<?xml version="1.0" encoding="iso-8859-1"?>
<!-- Generator: Adobe Illustrator 19.1.0, SVG Export Plug-In . SVG Version: 6.00 Build 0)  -->
<svg version="1.1" id="Capa_1" xmlns="http://www.w3.org/2000/svg" xmlns:xlink="http://www.w3.org/1999/xlink" x="0px" y="0px"
	 viewBox="0 0 71.104 71.104" style="enable-background:new 0 0 71.104 71.104;" xml:space="preserve">
<g>
	<g>
		<path d="M71.104,35.55c0-1.854-0.818-4.461-4.696-6.346L40.932,16.44c-0.277-0.14-0.834-0.212-1.146-0.212
			c-3.104,0-5.786,2.479-5.786,5.646v8.478c0-0.385-0.834-0.742-1.479-1.055L7.112,16.532c-0.253-0.126-0.716-0.197-0.998-0.209
			C2.794,16.184,0,18.673,0,21.874v27.353c0,3.114,2.787,5.648,5.906,5.648c0.311,0,0.741-0.072,1.02-0.211l25.349-12.764
			c0.723-0.359,1.726-0.753,1.726-1.172v8.498c0,3.167,2.682,5.648,5.786,5.648c0.312,0,0.744-0.073,1.022-0.213L66.286,41.9
			C69.44,40.328,71.104,38.192,71.104,35.55z M30.801,38.321L5.523,50.829C4.794,50.657,4,50.003,4,49.225V21.873
			c0-0.8,0.801-1.406,1.665-1.53l25.214,12.541c1.067,0.519,2.402,1.401,2.402,2.666C33.281,35.961,33.344,37.054,30.801,38.321z
			 M39.405,50.827C38.725,50.654,38,50.023,38,49.225V21.873c0-0.797,0.727-1.427,1.406-1.599l25.107,12.517
			c2.466,1.199,2.528,2.373,2.528,2.759c0,0.411-0.094,1.505-2.639,2.772L39.405,50.827z"/>
	</g>
</g>
<g>
</g>
<g>
</g>
<g>
</g>
<g>
</g>
<g>
</g>
<g>
</g>
<g>
</g>
<g>
</g>
<g>
</g>
<g>
</g>
<g>
</g>
<g>
</g>
<g>
</g>
<g>
</g>
<g>
</g>
</svg>
