<?xml version="1.0" encoding="iso-8859-1"?>
<!-- Generator: Adobe Illustrator 19.1.0, SVG Export Plug-In . SVG Version: 6.00 Build 0)  -->
<svg version="1.1" id="Capa_1" xmlns="http://www.w3.org/2000/svg" xmlns:xlink="http://www.w3.org/1999/xlink" x="0px" y="0px"
	 viewBox="0 0 74 74" style="enable-background:new 0 0 74 74;" xml:space="preserve">
<g>
	<g>
		<path d="M16.857,51.431c0.31,0,0.74-0.072,1.018-0.21l17.789-8.966C35.85,42.162,36,42.062,36,41.964v4.904
			c0,2.559,2.21,4.562,4.713,4.562c0.312,0,0.744-0.073,1.023-0.213l17.891-8.963c2.436-1.213,3.701-2.893,3.701-4.992
			c0-1.474-0.615-3.536-3.601-4.989l-17.876-8.967c-0.278-0.14-0.831-0.212-1.143-0.212c-2.503,0-4.709,2.004-4.709,4.562v4.908
			c0-0.076-0.018-0.156-0.164-0.228L18.006,23.37c-0.252-0.126-0.464-0.197-0.745-0.209l-0.432-0.005
			c-2.586,0-4.83,1.977-4.83,4.499v19.211C12,49.383,14.316,51.431,16.857,51.431z M40,27.656c0-0.141,0.294-0.346,0.434-0.466
			l17.413,8.669c0.921,0.447,1.45,0.92,1.45,1.402c0,0.17,0.031,0.688-1.429,1.415l-17.451,8.655C40.278,47.211,40,47.006,40,46.866
			C40,46.866,40,27.656,40,27.656z M16,27.656c0-0.208,0.383-0.375,0.605-0.452l17.589,8.721c0.398,0.194,1.39,0.712,1.39,1.337
			c0,0.17,0.031,0.688-1.423,1.412l-17.626,8.674C16.358,47.247,16,47.066,16,46.868V27.656z"/>
		<path d="M74,16.526c0-4.985-4.041-9.026-9.025-9.026H9.025C4.041,7.5,0,11.542,0,16.527v40.947c0,4.985,4.041,9.026,9.025,9.026
			h55.949c4.984,0,9.025-4.041,9.025-9.026L74,16.526L74,16.526z M70,57.474c0,2.776-2.25,5.026-5.025,5.026H9.025
			C6.25,62.5,4,60.25,4,57.474V16.526C4,13.75,6.25,11.5,9.025,11.5h55.949c2.775,0,5.025,2.25,5.025,5.026L70,57.474L70,57.474z"/>
	</g>
</g>
<g>
</g>
<g>
</g>
<g>
</g>
<g>
</g>
<g>
</g>
<g>
</g>
<g>
</g>
<g>
</g>
<g>
</g>
<g>
</g>
<g>
</g>
<g>
</g>
<g>
</g>
<g>
</g>
<g>
</g>
</svg>
