<?xml version="1.0" encoding="iso-8859-1"?>
<!-- Generator: Adobe Illustrator 19.1.0, SVG Export Plug-In . SVG Version: 6.00 Build 0)  -->
<svg version="1.1" id="Capa_1" xmlns="http://www.w3.org/2000/svg" xmlns:xlink="http://www.w3.org/1999/xlink" x="0px" y="0px"
	 viewBox="0 0 66.281 66.281" style="enable-background:new 0 0 66.281 66.281;" xml:space="preserve">
<g>
	<g>
		<path d="M33.14,66.281c18.273,0,33.141-14.868,33.141-33.143C66.281,14.866,51.414,0,33.14,0S0,14.866,0,33.139
			C0,51.413,14.867,66.281,33.14,66.281z M33.14,62.281c-7.421,0-14.199-2.793-19.35-7.377L54.903,13.79
			c4.584,5.15,7.377,11.928,7.377,19.349C62.281,49.208,49.209,62.281,33.14,62.281z M33.14,4.001c7.21,0,13.812,2.638,18.905,6.991
			L10.992,52.046C6.638,46.952,4,40.35,4,33.139C4,17.072,17.072,4.001,33.14,4.001z"/>
	</g>
</g>
<g>
</g>
<g>
</g>
<g>
</g>
<g>
</g>
<g>
</g>
<g>
</g>
<g>
</g>
<g>
</g>
<g>
</g>
<g>
</g>
<g>
</g>
<g>
</g>
<g>
</g>
<g>
</g>
<g>
</g>
</svg>
