<?xml version="1.0" encoding="iso-8859-1"?>
<!-- Generator: Adobe Illustrator 19.1.0, SVG Export Plug-In . SVG Version: 6.00 Build 0)  -->
<svg version="1.1" id="Capa_1" xmlns="http://www.w3.org/2000/svg" xmlns:xlink="http://www.w3.org/1999/xlink" x="0px" y="0px"
	 viewBox="0 0 64.889 64.889" style="enable-background:new 0 0 64.889 64.889;" xml:space="preserve">
<g>
	<g>
		<path d="M0.026,32.499c0.141,0.864,0.827,1.537,1.693,1.66l25.406,3.603l3.604,25.407c0.123,0.866,0.796,1.553,1.66,1.693
			c0.107,0.017,0.215,0.025,0.321,0.025c0.748,0,1.446-0.421,1.789-1.107L64.561,3.5c0.399-0.6,0.432-1.363,0.113-1.997
			c-0.008-0.016-0.016-0.03-0.023-0.046c-0.091-0.17-0.198-0.332-0.342-0.476c-0.002-0.002-0.005-0.003-0.007-0.005
			C64.301,0.974,64.3,0.972,64.3,0.972l-0.38-0.381c-0.608-0.611-1.539-0.765-2.309-0.378L1.108,30.388
			C0.325,30.779-0.113,31.635,0.026,32.499z M33.788,56.245l-2.722-19.192l24.521-24.521L33.788,56.245z M53.966,8.497
			L28.541,33.922L8.644,31.1L53.966,8.497z"/>
	</g>
</g>
<g>
</g>
<g>
</g>
<g>
</g>
<g>
</g>
<g>
</g>
<g>
</g>
<g>
</g>
<g>
</g>
<g>
</g>
<g>
</g>
<g>
</g>
<g>
</g>
<g>
</g>
<g>
</g>
<g>
</g>
</svg>
