<?xml version="1.0" encoding="iso-8859-1"?>
<!-- Generator: Adobe Illustrator 19.1.0, SVG Export Plug-In . SVG Version: 6.00 Build 0)  -->
<svg version="1.1" id="Capa_1" xmlns="http://www.w3.org/2000/svg" xmlns:xlink="http://www.w3.org/1999/xlink" x="0px" y="0px"
	 viewBox="0 0 73.001 73.001" style="enable-background:new 0 0 73.001 73.001;" xml:space="preserve">
<g>
	<g>
		<path d="M47.5,6c0-3.313-2.687-6-6-6h-10c-3.313,0-6,2.687-6,6v35c0,3.313,2.687,6,6,6h10c3.313,0,6-2.687,6-6V6z M43.5,41
			c0,1.104-0.896,2-2,2h-10c-1.104,0-2-0.896-2-2V6c0-1.104,0.896-2,2-2h10c1.104,0,2,0.896,2,2V41z"/>
		<path d="M52.5,21.381c-1.104,0-2,0.896-2,2v21.894c0,2.768-1.946,4.726-4.842,4.726H27.888c-2.74,0-5.387-1.862-5.387-4.726
			V23.381c0-1.104-0.896-2-2-2s-2,0.896-2,2v21.894c0,5.106,4.403,8.726,9.387,8.726H34.5v15H25c-1.104,0-2,0.896-2,2s0.896,2,2,2
			h24c1.104,0,2-0.896,2-2s-0.896-2-2-2H38.5v-15h7.158c5.063,0,8.842-3.789,8.842-8.726V23.381
			C54.5,22.276,53.604,21.381,52.5,21.381z"/>
	</g>
</g>
<g>
</g>
<g>
</g>
<g>
</g>
<g>
</g>
<g>
</g>
<g>
</g>
<g>
</g>
<g>
</g>
<g>
</g>
<g>
</g>
<g>
</g>
<g>
</g>
<g>
</g>
<g>
</g>
<g>
</g>
</svg>
