<?xml version="1.0" encoding="iso-8859-1"?>
<!-- Generator: Adobe Illustrator 19.1.0, SVG Export Plug-In . SVG Version: 6.00 Build 0)  -->
<svg version="1.1" id="Capa_1" xmlns="http://www.w3.org/2000/svg" xmlns:xlink="http://www.w3.org/1999/xlink" x="0px" y="0px"
	 viewBox="0 0 66.915 66.915" style="enable-background:new 0 0 66.915 66.915;" xml:space="preserve">
<g>
	<g>
		<path d="M17.261,35.5h32c1.104,0,2-0.896,2-2s-0.896-2-2-2h-32c-1.104,0-2,0.896-2,2S16.157,35.5,17.261,35.5z"/>
		<path d="M33.458,66.915c18.448,0,33.457-15.009,33.457-33.458C66.914,15.009,51.907,0,33.458,0S0.001,15.009,0.001,33.457
			C0.001,51.906,15.01,66.915,33.458,66.915z M33.458,4c16.242,0,29.457,13.214,29.457,29.457S49.699,62.915,33.458,62.915
			S4.001,49.7,4.001,33.457C4.001,17.215,17.216,4,33.458,4z"/>
	</g>
</g>
<g>
</g>
<g>
</g>
<g>
</g>
<g>
</g>
<g>
</g>
<g>
</g>
<g>
</g>
<g>
</g>
<g>
</g>
<g>
</g>
<g>
</g>
<g>
</g>
<g>
</g>
<g>
</g>
<g>
</g>
</svg>
