<?xml version="1.0" encoding="iso-8859-1"?>
<!-- Generator: Adobe Illustrator 19.1.0, SVG Export Plug-In . SVG Version: 6.00 Build 0)  -->
<svg version="1.1" id="Capa_1" xmlns="http://www.w3.org/2000/svg" xmlns:xlink="http://www.w3.org/1999/xlink" x="0px" y="0px"
	 viewBox="0 0 66.915 66.915" style="enable-background:new 0 0 66.915 66.915;" xml:space="preserve">
<g>
	<g>
		<path d="M40.187,20.708c-0.78-0.781-2.048-0.781-2.828,0c-0.781,0.781-0.781,1.856,0,2.638l8.045,7.855H16.595
			c-1.104,0-2,0.896-2,2s0.896,2,2,2h28.561l-7.797,7.986c-0.781,0.78-0.781,2.143,0,2.924c0.391,0.391,0.902,0.633,1.414,0.633
			s1.023-0.171,1.414-0.562L51.523,34.86c0.375-0.375,0.586-0.878,0.586-1.408s-0.211-1.036-0.586-1.411L40.187,20.708z"/>
		<path d="M33.458,0C15.01,0,0.001,15.009,0.001,33.457c0,18.449,15.009,33.458,33.457,33.458s33.457-15.009,33.457-33.458
			C66.915,15.009,51.907,0,33.458,0z M33.458,62.915c-16.243,0-29.457-13.215-29.457-29.458C4.001,17.215,17.215,4,33.458,4
			C49.7,4,62.915,17.215,62.915,33.457C62.915,49.7,49.7,62.915,33.458,62.915z"/>
	</g>
</g>
<g>
</g>
<g>
</g>
<g>
</g>
<g>
</g>
<g>
</g>
<g>
</g>
<g>
</g>
<g>
</g>
<g>
</g>
<g>
</g>
<g>
</g>
<g>
</g>
<g>
</g>
<g>
</g>
<g>
</g>
</svg>
