<?xml version="1.0" encoding="iso-8859-1"?>
<!-- Generator: Adobe Illustrator 19.1.0, SVG Export Plug-In . SVG Version: 6.00 Build 0)  -->
<svg version="1.1" id="Capa_1" xmlns="http://www.w3.org/2000/svg" xmlns:xlink="http://www.w3.org/1999/xlink" x="0px" y="0px"
	 viewBox="0 0 74 74" style="enable-background:new 0 0 74 74;" xml:space="preserve">
<g>
	<g>
		<path d="M25.926,51.586c0.309,0,0.738-0.071,1.015-0.209l17.86-8.967C46.572,41.528,48,40.396,48,39.038v10.843
			c0,1.104,0.896,2,2,2s2-0.896,2-2v-25c0-1.104-0.896-2-2-2s-2,0.896-2,2v10.936c0-1.147-1.139-2.391-3.193-3.39L26.943,23.46
			c-0.277-0.138-0.771-0.21-1.08-0.21C23.329,23.25,21,25.34,21,27.812v19.212C21,49.496,23.392,51.586,25.926,51.586z M25,27.812
			c0-0.188,0.407-0.38,0.612-0.483l17.553,8.688c0.449,0.218,1.556,0.792,1.556,1.401c0,0.171,0.031,0.689-1.42,1.412l-17.703,8.679
			C25.392,47.405,25,47.215,25,47.025C25,47.025,25,27.812,25,27.812z"/>
		<path d="M74,16.526c0-4.985-4.041-9.026-9.026-9.026H9.026C4.041,7.501,0,11.542,0,16.527v40.947C0,62.458,4.041,66.5,9.026,66.5
			h55.947c4.985,0,9.026-4.041,9.026-9.026L74,16.526L74,16.526z M70,57.474c0,2.776-2.25,5.026-5.026,5.026H9.026
			C6.25,62.5,4,60.25,4,57.474V16.526C4,13.75,6.25,11.5,9.026,11.5h55.947c2.776,0,5.026,2.25,5.026,5.026L70,57.474L70,57.474z"/>
	</g>
</g>
<g>
</g>
<g>
</g>
<g>
</g>
<g>
</g>
<g>
</g>
<g>
</g>
<g>
</g>
<g>
</g>
<g>
</g>
<g>
</g>
<g>
</g>
<g>
</g>
<g>
</g>
<g>
</g>
<g>
</g>
</svg>
