<?xml version="1.0" encoding="iso-8859-1"?>
<!-- Generator: Adobe Illustrator 19.1.0, SVG Export Plug-In . SVG Version: 6.00 Build 0)  -->
<svg version="1.1" id="Capa_1" xmlns="http://www.w3.org/2000/svg" xmlns:xlink="http://www.w3.org/1999/xlink" x="0px" y="0px"
	 viewBox="0 0 74 74" style="enable-background:new 0 0 74 74;" xml:space="preserve">
<g>
	<g>
		<path d="M32,22.882c-1.104,0-2,0.896-2,2v25c0,1.104,0.896,2,2,2s2-0.896,2-2v-25C34,23.777,33.104,22.882,32,22.882z"/>
		<path d="M43,22.882c-1.104,0-2,0.896-2,2v25c0,1.104,0.896,2,2,2s2-0.896,2-2v-25C45,23.777,44.104,22.882,43,22.882z"/>
		<path d="M74,16.526c0-4.985-4.041-9.026-9.025-9.026H9.025C4.041,7.5,0,11.542,0,16.527v40.947c0,4.985,4.041,9.026,9.025,9.026
			h55.949c4.984,0,9.025-4.041,9.025-9.026L74,16.526L74,16.526z M70,57.474c0,2.776-2.25,5.026-5.025,5.026H9.025
			C6.25,62.5,4,60.25,4,57.474V16.526C4,13.75,6.25,11.5,9.025,11.5h55.949c2.775,0,5.025,2.25,5.025,5.026L70,57.474L70,57.474z"/>
	</g>
</g>
<g>
</g>
<g>
</g>
<g>
</g>
<g>
</g>
<g>
</g>
<g>
</g>
<g>
</g>
<g>
</g>
<g>
</g>
<g>
</g>
<g>
</g>
<g>
</g>
<g>
</g>
<g>
</g>
<g>
</g>
</svg>
