<?xml version="1.0" encoding="iso-8859-1"?>
<!-- Generator: Adobe Illustrator 19.1.0, SVG Export Plug-In . SVG Version: 6.00 Build 0)  -->
<svg version="1.1" id="Capa_1" xmlns="http://www.w3.org/2000/svg" xmlns:xlink="http://www.w3.org/1999/xlink" x="0px" y="0px"
	 viewBox="0 0 65 65" style="enable-background:new 0 0 65 65;" xml:space="preserve">
<g>
	<g>
		<path d="M32.5,0C14.579,0,0,14.579,0,32.5S14.579,65,32.5,65S65,50.421,65,32.5S50.421,0,32.5,0z M32.5,61
			C16.785,61,4,48.215,4,32.5S16.785,4,32.5,4S61,16.785,61,32.5S48.215,61,32.5,61z"/>
		<circle cx="31.982" cy="15.46" r="3.345"/>
		<path d="M37.63,46.102c-1.495,1.535-3.208,2.281-5.235,2.281c-4.355,0-8.176-3.625-8.176-7.757c0-4.203,3.084-7.754,7.031-7.754
			c1.104,0,1.75-0.896,1.75-2v-6.53c0-1.104-0.896-2-2-2s-2,0.896-2,2v4.724c-5,1.017-9.031,5.898-9.031,11.561
			c0,6.373,5.701,11.757,12.301,11.757c3.119,0,5.907-1.174,8.163-3.49c0.771-0.791,0.785-2.058-0.006-2.828
			C39.636,45.293,38.399,45.311,37.63,46.102z"/>
	</g>
</g>
<g>
</g>
<g>
</g>
<g>
</g>
<g>
</g>
<g>
</g>
<g>
</g>
<g>
</g>
<g>
</g>
<g>
</g>
<g>
</g>
<g>
</g>
<g>
</g>
<g>
</g>
<g>
</g>
<g>
</g>
</svg>
