<?xml version="1.0" encoding="iso-8859-1"?>
<!-- Generator: Adobe Illustrator 19.1.0, SVG Export Plug-In . SVG Version: 6.00 Build 0)  -->
<svg version="1.1" id="Capa_1" xmlns="http://www.w3.org/2000/svg" xmlns:xlink="http://www.w3.org/1999/xlink" x="0px" y="0px"
	 viewBox="0 0 52.728 52.728" style="enable-background:new 0 0 52.728 52.728;" xml:space="preserve">
<g>
	<g>
		<circle cx="27.875" cy="4.434" r="4.434"/>
		<path d="M13.144,37.794c0,8.095,7.092,14.934,15.338,14.934c4.019,0,7.697-1.532,10.519-4.432
			c0.771-0.791,0.784-2.058-0.008-2.828c-0.791-0.77-2.041-0.754-2.812,0.039c-2.08,2.137-4.625,3.221-7.581,3.221
			c-6.078,0-11.209-5.007-11.209-10.934c0-6.026,4.498-10.929,10.331-10.929c1.104,0,1.752-0.896,1.752-2v-8.657
			c0-1.104-0.896-2-2-2s-2,0.896-2,2v6.797C18.473,24.007,13.144,30.257,13.144,37.794z"/>
	</g>
</g>
<g>
</g>
<g>
</g>
<g>
</g>
<g>
</g>
<g>
</g>
<g>
</g>
<g>
</g>
<g>
</g>
<g>
</g>
<g>
</g>
<g>
</g>
<g>
</g>
<g>
</g>
<g>
</g>
<g>
</g>
</svg>
