<?xml version="1.0" encoding="iso-8859-1"?>
<!-- Generator: Adobe Illustrator 19.1.0, SVG Export Plug-In . SVG Version: 6.00 Build 0)  -->
<svg version="1.1" id="Capa_1" xmlns="http://www.w3.org/2000/svg" xmlns:xlink="http://www.w3.org/1999/xlink" x="0px" y="0px"
	 viewBox="0 0 74 74" style="enable-background:new 0 0 74 74;" xml:space="preserve">
<g>
	<g>
		<path d="M37.721,27.368c-5.521,0-10.014,4.492-10.014,10.014s4.492,10.015,10.014,10.015s10.014-4.492,10.014-10.015
			C47.734,31.86,43.242,27.368,37.721,27.368z M37.721,43.396c-3.316,0-6.014-2.698-6.014-6.015s2.698-6.014,6.014-6.014
			s6.014,2.697,6.014,6.014S41.037,43.396,37.721,43.396z"/>
		<path d="M74,16.526c0-4.985-4.041-9.026-9.025-9.026H9.025C4.041,7.5,0,11.542,0,16.527v40.947c0,4.985,4.041,9.026,9.025,9.026
			h55.949c4.984,0,9.025-4.041,9.025-9.026L74,16.526L74,16.526z M70,57.474c0,2.776-2.25,5.026-5.025,5.026H9.025
			C6.25,62.5,4,60.25,4,57.474V16.526C4,13.75,6.25,11.5,9.025,11.5h55.949c2.775,0,5.025,2.25,5.025,5.026L70,57.474L70,57.474z"/>
	</g>
</g>
<g>
</g>
<g>
</g>
<g>
</g>
<g>
</g>
<g>
</g>
<g>
</g>
<g>
</g>
<g>
</g>
<g>
</g>
<g>
</g>
<g>
</g>
<g>
</g>
<g>
</g>
<g>
</g>
<g>
</g>
</svg>
