<?xml version="1.0" encoding="iso-8859-1"?>
<!-- Generator: Adobe Illustrator 19.1.0, SVG Export Plug-In . SVG Version: 6.00 Build 0)  -->
<svg version="1.1" id="Capa_1" xmlns="http://www.w3.org/2000/svg" xmlns:xlink="http://www.w3.org/1999/xlink" x="0px" y="0px"
	 viewBox="0 0 67.315 67.315" style="enable-background:new 0 0 67.315 67.315;" xml:space="preserve">
<g>
	<g>
		<path d="M7.172,67.315h30.623c1.104,0,2-0.896,2-2s-0.896-2-2-2H9.231c0.9-15,11.851-27.263,15.016-30.395
			c2.327,1.162,4.941,1.803,7.714,1.803c2.695,0,5.24-0.651,7.518-1.753c1.57,1.471,5.983,5.886,9.654,12.305
			c0.369,0.646,1.044,1.004,1.738,1.004c0.336,0,0.678-0.087,0.99-0.267c0.959-0.548,1.293-1.771,0.744-2.729
			c-3.49-6.104-7.523-10.456-9.646-12.534c3.872-3.184,6.347-8.009,6.347-13.402C49.306,7.782,41.525,0,31.96,0
			S14.615,7.782,14.615,17.347c0,5.323,2.415,10.089,6.201,13.274c-4.329,4.39-15.645,17.557-15.645,34.635
			C5.172,66.36,6.067,67.315,7.172,67.315z M18.615,17.347C18.615,9.988,24.602,4,31.961,4s13.346,5.987,13.346,13.347
			s-5.986,13.347-13.346,13.347C24.602,30.693,18.615,24.706,18.615,17.347z"/>
		<path d="M46.709,48.522c-0.78-0.781-2.048-0.781-2.828,0c-0.781,0.781-0.781,2.048,0,2.828l5.657,5.658l-6.364,6.363
			c-0.781,0.781-0.781,2.048,0,2.828c0.391,0.391,0.902,0.586,1.414,0.586s1.023-0.195,1.414-0.586l6.364-6.363l6.364,6.363
			c0.391,0.391,0.902,0.586,1.414,0.586s1.023-0.195,1.414-0.586c0.781-0.78,0.781-2.047,0-2.828l-6.364-6.363l6.364-6.365
			c0.781-0.78,0.781-2.047,0-2.828c-0.78-0.781-2.048-0.781-2.828,0l-6.364,6.365L46.709,48.522z"/>
	</g>
</g>
<g>
</g>
<g>
</g>
<g>
</g>
<g>
</g>
<g>
</g>
<g>
</g>
<g>
</g>
<g>
</g>
<g>
</g>
<g>
</g>
<g>
</g>
<g>
</g>
<g>
</g>
<g>
</g>
<g>
</g>
</svg>
