<?xml version="1.0" encoding="iso-8859-1"?>
<!-- Generator: Adobe Illustrator 19.1.0, SVG Export Plug-In . SVG Version: 6.00 Build 0)  -->
<svg version="1.1" id="Capa_1" xmlns="http://www.w3.org/2000/svg" xmlns:xlink="http://www.w3.org/1999/xlink" x="0px" y="0px"
	 viewBox="0 0 69.094 69.094" style="enable-background:new 0 0 69.094 69.094;" xml:space="preserve">
<g>
	<g>
		<path d="M4.781,40.894l25.398,12.764c0.279,0.14,0.337,0.213,0.648,0.213c3.093,0,5.266-2.481,5.266-5.648v-8.526
			c1,0.427,1.455,0.826,2.188,1.191l25.144,12.765c0.281,0.144,0.405,0.219,0.722,0.219c2.976,0,4.947-2.376,4.947-5.648V20.869
			c0-3.364-1.963-5.695-5.156-5.551c-0.285,0.012-0.438,0.084-0.692,0.213l-25.433,12.75c-0.568,0.275-0.72,0.596-1.72,0.94v-8.353
			c0-3.166-2.173-5.646-5.266-5.646c-0.312,0-0.493,0.072-0.771,0.212L4.678,28.19C0.785,30.083,0,32.691,0,34.546
			C0,37.188,1.632,39.325,4.781,40.894z M39.9,31.867l24.567-12.535c0.364,0.063,0.626,0.34,0.626,1.538v27.353
			c0,0.529,0.141,1.366-0.517,1.591l-24.37-12.497c-2.538-1.265-2.476-2.358-2.476-2.77C37.731,33.834,38.009,32.785,39.9,31.867z
			 M6.511,31.778l24.695-12.505c0.669,0.173,0.887,0.803,0.887,1.598v27.353c0,0.796-0.218,1.427-0.887,1.601L6.446,37.318
			c-2.54-1.266-2.478-2.358-2.478-2.77C3.969,34.16,4.031,32.982,6.511,31.778z"/>
	</g>
</g>
<g>
</g>
<g>
</g>
<g>
</g>
<g>
</g>
<g>
</g>
<g>
</g>
<g>
</g>
<g>
</g>
<g>
</g>
<g>
</g>
<g>
</g>
<g>
</g>
<g>
</g>
<g>
</g>
<g>
</g>
</svg>
