<?xml version="1.0" encoding="iso-8859-1"?>
<!-- Generator: Adobe Illustrator 19.1.0, SVG Export Plug-In . SVG Version: 6.00 Build 0)  -->
<svg version="1.1" id="Capa_1" xmlns="http://www.w3.org/2000/svg" xmlns:xlink="http://www.w3.org/1999/xlink" x="0px" y="0px"
	 viewBox="0 0 74 74" style="enable-background:new 0 0 74 74;" xml:space="preserve">
<g>
	<g>
		<path d="M15.293,42.251l17.839,8.966c0.278,0.14,0.336,0.213,0.648,0.213c2.506,0,4.22-2.004,4.22-4.562v-4.898
			c1,0.096,0.58,0.193,0.762,0.284l18.108,8.966c0.277,0.138,0.396,0.21,0.705,0.21c2.544,0,4.425-2.047,4.425-4.562V27.656
			c0-2.48-1.821-4.499-4.367-4.499l-0.088,0.005c-0.281,0.012-0.494,0.083-0.745,0.209l-18.155,8.955
			C38.495,32.399,39,32.482,38,32.56v-4.904c0-2.559-1.713-4.562-4.22-4.562c-0.311,0-0.493,0.072-0.771,0.212l-17.8,8.956
			c-3.01,1.464-3.611,3.527-3.611,5C11.598,39.362,12.864,41.042,15.293,42.251z M40.692,35.916l17.202-8.714
			c0.214,0.077,0.105,0.247,0.105,0.455v19.211c0,0.195,0.122,0.378-0.057,0.479L40.67,38.674c-1.453-0.724-1.391-1.242-1.391-1.412
			C39.279,36.639,40.271,36.119,40.692,35.916z M17.042,35.849l17.021-8.659c0.143,0.12-0.062,0.326-0.062,0.467v19.211
			c0,0.141,0.205,0.347,0.063,0.466l-17.105-8.659c-1.454-0.724-1.391-1.242-1.391-1.412C15.566,36.78,16.097,36.309,17.042,35.849z
			"/>
		<path d="M74,16.526c0-4.985-4.041-9.026-9.025-9.026H9.025C4.041,7.5,0,11.542,0,16.527v40.947c0,4.985,4.041,9.026,9.025,9.026
			h55.949c4.984,0,9.025-4.041,9.025-9.026L74,16.526L74,16.526z M70,57.474c0,2.776-2.25,5.026-5.025,5.026H9.025
			C6.25,62.5,4,60.25,4,57.474V16.526C4,13.75,6.25,11.5,9.025,11.5h55.949c2.775,0,5.025,2.25,5.025,5.026L70,57.474L70,57.474z"/>
	</g>
</g>
<g>
</g>
<g>
</g>
<g>
</g>
<g>
</g>
<g>
</g>
<g>
</g>
<g>
</g>
<g>
</g>
<g>
</g>
<g>
</g>
<g>
</g>
<g>
</g>
<g>
</g>
<g>
</g>
<g>
</g>
</svg>
