<?xml version="1.0" encoding="iso-8859-1"?>
<!-- Generator: Adobe Illustrator 19.1.0, SVG Export Plug-In . SVG Version: 6.00 Build 0)  -->
<svg version="1.1" id="Capa_1" xmlns="http://www.w3.org/2000/svg" xmlns:xlink="http://www.w3.org/1999/xlink" x="0px" y="0px"
	 viewBox="0 0 67.359 67.359" style="enable-background:new 0 0 67.359 67.359;" xml:space="preserve">
<g>
	<g>
		<path d="M54.931,19.796c5.458,0,9.898-4.438,9.898-9.893c0-5.461-4.44-9.903-9.898-9.903s-9.898,4.442-9.898,9.903
			c0,0.729,0.085,1.438,0.235,2.123l-27.28,12.965c-1.586-1.081-3.5-1.716-5.561-1.716c-5.458,0-9.898,4.442-9.898,9.903
			c0,5.455,4.44,9.894,9.898,9.894c1.916,0,3.7-0.556,5.218-1.502l27.771,13.198c-0.244,0.858-0.383,1.761-0.383,2.697
			c0,5.455,4.44,9.894,9.898,9.894s9.898-4.438,9.898-9.894c0-5.46-4.44-9.902-9.898-9.902c-3.091,0-5.854,1.426-7.67,3.653
			L20.702,38.594c1.023-1.558,1.624-3.416,1.624-5.415c0-1.88-0.536-3.633-1.448-5.132L46.91,15.676
			C48.709,18.166,51.63,19.796,54.931,19.796z M54.931,51.564c3.252,0,5.898,2.647,5.898,5.902c0,3.25-2.646,5.894-5.898,5.894
			s-5.898-2.644-5.898-5.894C49.034,54.211,51.679,51.564,54.931,51.564z M6.53,33.179c0-3.255,2.646-5.903,5.898-5.903
			s5.898,2.648,5.898,5.903c0,3.25-2.646,5.894-5.898,5.894S6.53,36.429,6.53,33.179z M54.931,4c3.252,0,5.898,2.648,5.898,5.903
			c0,3.249-2.646,5.893-5.898,5.893s-5.898-2.644-5.898-5.893C49.034,6.649,51.679,4,54.931,4z"/>
	</g>
</g>
<g>
</g>
<g>
</g>
<g>
</g>
<g>
</g>
<g>
</g>
<g>
</g>
<g>
</g>
<g>
</g>
<g>
</g>
<g>
</g>
<g>
</g>
<g>
</g>
<g>
</g>
<g>
</g>
<g>
</g>
</svg>
