<?xml version="1.0" encoding="iso-8859-1"?>
<!-- Generator: Adobe Illustrator 19.1.0, SVG Export Plug-In . SVG Version: 6.00 Build 0)  -->
<svg version="1.1" id="Capa_1" xmlns="http://www.w3.org/2000/svg" xmlns:xlink="http://www.w3.org/1999/xlink" x="0px" y="0px"
	 viewBox="0 0 95 95" style="enable-background:new 0 0 95 95;" xml:space="preserve">
<g>
	<g>
		<path d="M93,62.357H45.155l41.146-10.905c2.037-0.653,7.199-2.2,7.199-7.714v-15c0-4.411-3.144-8.381-7.622-8.381H21.439
			l-1.304-5.464c-0.215-0.9-1.02-1.536-1.945-1.536H2c-1.104,0-2,0.896-2,2s0.896,2,2,2h14.611l11.321,47.464
			c0.215,0.9,1.02,1.536,1.945,1.536h0.085c0.002,0,0.004,0,0.006,0s0.005,0,0.008,0h6.167c-1.483,2-2.399,3.916-2.399,6.261
			c0,4.924,4.006,9.024,8.93,9.024s8.93-4.148,8.93-9.072c0-2.345-0.916-4.213-2.399-6.213h23.939c-1.483,2-2.399,3.916-2.399,6.261
			c0,4.924,4.006,9.024,8.93,9.024s8.93-4.148,8.93-9.072c0-2.345-0.916-4.213-2.399-6.213H93c1.104,0,2-0.896,2-2
			S94.104,62.357,93,62.357z M42.674,77.738c-2.718,0-4.93-2.212-4.93-4.93s2.212-4.93,4.93-4.93s4.93,2.212,4.93,4.93
			S45.392,77.738,42.674,77.738z M79.674,77.738c-2.718,0-4.93-2.212-4.93-4.93s2.212-4.93,4.93-4.93s4.93,2.212,4.93,4.93
			S82.392,77.738,79.674,77.738z M22.394,24.357h63.484c2.234,0,3.622,2.213,3.622,4.381v15c0,1.559-0.545,2.852-4.328,4.068
			L31.227,62.107L22.394,24.357z"/>
	</g>
</g>
<g>
</g>
<g>
</g>
<g>
</g>
<g>
</g>
<g>
</g>
<g>
</g>
<g>
</g>
<g>
</g>
<g>
</g>
<g>
</g>
<g>
</g>
<g>
</g>
<g>
</g>
<g>
</g>
<g>
</g>
</svg>
