<?xml version="1.0" encoding="iso-8859-1"?>
<!-- Generator: Adobe Illustrator 19.1.0, SVG Export Plug-In . SVG Version: 6.00 Build 0)  -->
<svg version="1.1" id="Capa_1" xmlns="http://www.w3.org/2000/svg" xmlns:xlink="http://www.w3.org/1999/xlink" x="0px" y="0px"
	 viewBox="0 0 68 68" style="enable-background:new 0 0 68 68;" xml:space="preserve">
<g>
	<g>
		<path d="M55.5,6.199C55.5,2.775,52.724,0,49.3,0H18.7c-3.424,0-6.2,2.775-6.2,6.199v55.602c0,3.424,2.776,6.199,6.2,6.199h30.6
			c3.424,0,6.2-2.775,6.2-6.199V6.199z M51.5,61.801c0,1.215-0.985,2.199-2.2,2.199H18.7c-1.215,0-2.2-0.984-2.2-2.199V6.199
			C16.5,4.985,17.485,4,18.7,4h30.6c1.215,0,2.2,0.985,2.2,2.199V61.801z"/>
		<path d="M48.5,9c0-1.104-0.896-2-2-2h-25c-1.104,0-2,0.896-2,2v42c0,1.104,0.896,2,2,2h25c1.104,0,2-0.896,2-2V9z M23.5,11h21v38
			h-21V11z"/>
		<circle cx="33.841" cy="58.003" r="3.455"/>
	</g>
</g>
<g>
</g>
<g>
</g>
<g>
</g>
<g>
</g>
<g>
</g>
<g>
</g>
<g>
</g>
<g>
</g>
<g>
</g>
<g>
</g>
<g>
</g>
<g>
</g>
<g>
</g>
<g>
</g>
<g>
</g>
</svg>
